<svg id="Capa_1" data-name="Capa 1" xmlns="http://www.w3.org/2000/svg" viewBox="0 0 200 198.47"><defs><style>.cls-1{fill:#fdfdfd;}.cls-2{fill:#060606;}.cls-3{fill:#f9f9f9;}</style></defs><path class="cls-1" d="M100,198.4q-48.63,0-97.26.07C.46,198.47,0,198,0,195.72q.12-96.48,0-193C0,.46.46,0,2.74,0Q100,.12,197.26,0c2.28,0,2.74.46,2.74,2.74q-.12,96.5,0,193c0,2.29-.46,2.75-2.74,2.75Q148.63,198.32,100,198.4Zm84.36-95.1c1.25-45.32-33-84.61-79.38-87.74-48.72-3.3-88.93,32.8-91.67,81.54-2.54,45.32,34.1,86.28,79.35,89C142.18,189.15,182.79,151.38,184.36,103.3Z" transform="translate(0 0)"/><path class="cls-2" d="M184.36,103.3c-1.57,48.08-42.18,85.85-91.7,82.83-45.25-2.75-81.89-43.71-79.35-89C16.05,48.36,56.26,12.26,105,15.56,151.35,18.69,185.61,58,184.36,103.3ZM99.73,87.08l1,.2c3.94-9.13,11-14.13,20.57-15.79,2.4-.42,3.36-.06,3,2.83a25.34,25.34,0,0,1-21.07,22.21c-1.47.26-3.12-.07-3,2.37.15,3.48,0,7,0,11.32,6.21-10.25,11.8-14.41,20.39-15.86,2.82-.47,4.12-.23,3.62,3.3-1.57,11-9.39,19.23-21.19,21.75-1,.22-2.51-.28-2.52,1.55,0,3,0,6.06,0,9.09,3.43-4.55,6.79-8.32,11.43-10.76,3.73-2,9.11-4.88,11.6-2.5,2.67,2.54-.41,7.77-2.27,11.52-3,6.07-8.16,9.75-14.25,12.45,14.91.23,29.69.2,44.47.28,1.86,0,2.71-.85,3.59-2.22,12.49-19.53,15-40.19,7.29-62.11-.89-2.51-1.67-3.08-4.18-1.57-8.84,5.31-17.84,10.38-26.79,15.51-.85.48-2.12,1.78-2.6,1.08-1.91-2.73-4.71-.49-7.08-1.72,2.44-3.7,4.82-7.47,5.53-11.92a6,6,0,0,1,3.49-4.57c6.66-3.75,13.17-7.77,19.91-11.36,2.57-1.37,2.57-2.21.83-4.29-9.93-11.82-22.32-19.73-37.34-23.14-4.12-.93-6.66-2.45-8.8-6.28-5-9-8.29-9-13.21.2-2.06,3.81-4.64,5.17-8.61,6-39.92,8.68-63.22,52.5-48.28,90.4.91,2.29,1.66,2.74,3.95,1.38,10.3-6.11,20.74-12,31.09-18,1.55-.9,2.66-1.33,3.36.82.33,1,1.62,1.63,1.31,3-5.95.17-6.69.36-5.19,6.22,1.62,6.33-.73,9.28-6.09,11.4a48.09,48.09,0,0,0-6.33,3.54c-4,2.31-7.93,4.65-12.63,7.41H91.5c-11-4.21-16.74-11.42-18.19-22.11-.28-2.11.14-2.73,2.32-2.46,7.76.94,14,4.32,18.56,10.78.72,1,1.39,2.1,2.08,3.15.81-2.54.63-4.84.86-7.1.24-2.47-.43-3.33-3.09-3.84-11-2.11-18.75-10.2-20.45-20.61-.76-4.7-.43-5,4.28-4,8.78,1.79,15.07,6.82,19.21,14.88.31-3.15.14-6.18.36-9.18.18-2.49-.49-3.36-3.15-3.83-9.18-1.63-15.78-6.79-19.24-15.62-1.15-2.93-3.18-7-1.25-8.87s6,.2,8.94,1.31c6.78,2.56,11.33,7.5,14.72,14,.4-2.6.08-5.15.47-7.59.57-3.56-.71-4.72-4.19-5.31-11.07-1.89-19-10.77-20.36-21.89-.28-2.33-.1-3.21,2.62-2.84,8.55,1.15,15,5.25,19.4,12.69.42.72.46,1.42,1.74.77s1.08-1.17.55-2-1.07-1.42-1.59-2.16A25.31,25.31,0,0,1,97,28c1.28-1.63,2-2.21,3.62-.2,7.19,9,7.91,21.21,1.24,30.55-1.94,2.71-2.7,5.28-2,8.41.13,0,.33,0,.37-.08.32-.67.62-1.37.92-2.05a24.63,24.63,0,0,1,17.23-14.42c6.32-1.62,7-1,5.35,5.26-2.8,10.67-9.71,17-20.49,19.19-1.27.26-3.61-.63-3.49,2.26C99.84,80.28,99.73,83.68,99.73,87.08Zm33.74,65c-2.09-2.58-3.5-4.35-4.93-6.1a2.75,2.75,0,0,0-2.81-.73c-.86.14-.81.85-.81,1.47,0,3.69,0,7.39,0,11.08,0,1.55,1.09,1.4,2.11,1.47s1.74-.19,1.73-1.4c0-1.47,0-2.94,0-5.57,2.11,2.6,3.54,4.29,4.89,6.06a2.51,2.51,0,0,0,2.72.83c1.32-.22.95-1.31,1-2.12,0-3.31,0-6.62,0-9.93,0-1.54-.64-2-2-2-1.56,0-2,.74-1.89,2.14S133.47,149.77,133.47,152.05Zm-65,3.33c-1.78.62-3.26.48-3.93-1.32a4.37,4.37,0,0,1,.56-4.67c1.14-1.27,2.46-1,3.69,0,1.59,1.38,2.3-.44,3-1.09.89-.81-.14-1.56-.88-2.05a6.57,6.57,0,0,0-7.83.12c-2.88,2-3.4,5.05-2.39,8.16a6.55,6.55,0,0,0,6.68,4.7,5.66,5.66,0,0,0,5.82-4.53c.3-1.12,1.12-2.77-.61-3.23s-3.76-.82-5.06.25S67.39,154.31,68.5,155.38Zm30.29-4.89V148.2c0-1.48.45-3.14-2.1-3.06s-1.65,1.76-1.74,3c-.1,1.4.08,2.81,0,4.2-.12,1.55-.38,3.28-2.37,3.38-2.31.11-2.49-1.85-2.63-3.47a47.56,47.56,0,0,1,0-5.34c0-1.31-.58-1.84-1.86-1.78-1.12,0-2,.26-2,1.69a60.06,60.06,0,0,0,.35,7.61c.69,4,4.26,5.78,8.12,4.51C98.75,157.52,98.76,154,98.79,150.49Zm.32,28.59c-1.53-3.32-1.54-3.32-.51-7.78a4.1,4.1,0,0,0-.28-2.58c-1.23-3-4.31-4.12-9.26-3.21-3.16.58-1.25,3.08-1.48,4.63-.35,2.36,0,4.82-.1,7.23,0,1.41.29,2.09,1.87,2.08s2.1-.38,2-1.93c0-.74-.54-2,.88-2.1,1.16-.11,1.4,1,1.7,1.77C94.94,179.63,96.73,179.82,99.11,179.08Zm14.14-26.94h0c0,1.65,0,3.3,0,5,0,1.28.17,2.4,1.81,2.1,2.69-.5,5.8,1.35,8.05-1.14.6-.66.37-2.32-1.43-2.31a12,12,0,0,1-1.9,0c-1-.15-2.65.74-2.57-1.13.07-1.45,1.6-.8,2.5-.88,1.12-.11,2.37.2,2.4-1.58s-1-1.6-2.25-1.72c-.92-.08-2.74.86-2.59-1.08.1-1.33,1.64-.58,2.54-.72a17.16,17.16,0,0,1,1.9,0c1,0,1.31-.61,1.3-1.49s-.12-1.88-1.34-1.86c-2.65.05-5.59-.51-7.83.49-1.55.69-.35,3.72-.6,5.69A6.42,6.42,0,0,0,113.25,152.14Zm-.64,20.21c0,2.05,0,3.71,0,5.36,0,1,.12,1.72,1.42,1.69,2.41-.06,4.83,0,7.25,0,1.29,0,1.3-.86,1.31-1.81s-.29-1.45-1.28-1.43-1.78,0-2.67,0-2.27.34-2.13-1.32c.11-1.41,1.32-.75,2.09-.93,1.07-.24,2.8.76,2.92-1.36.14-2.41-1.77-1.51-3-1.74-.75-.15-2,.54-2-.94s1.21-1,2-1c.63-.05,1.27,0,1.9,0,1.06,0,2,0,2-1.57,0-1.71-1-1.7-2.2-1.78-7.68-.54-7.68-.56-7.67,6.9C112.61,172.5,112.62,172.62,112.61,172.35Zm-11.7-.13c0,7.3,0,7.35,6.59,7.16,1.26,0,3.43,1,3.34-1.73-.08-2.38-2-1.18-3.19-1.5-1-.27-2.66.78-2.77-1-.14-2.23,1.81-1,2.84-1.25s2,.2,2-1.47-1.06-1.58-2.23-1.68c-.89-.08-2.44.65-2.55-.75-.14-1.78,1.59-1,2.57-1.23a5.42,5.42,0,0,1,1.14,0c1.08,0,2-.12,1.94-1.62,0-1.35-.6-1.61-1.83-1.74C101.18,164.6,100.89,164.81,100.91,172.22Zm5-27.09v0h-4.57c-1.15,0-1.53.66-1.51,1.7s.16,1.91,1.4,1.71C104.32,148,104.1,150,104,152c0,1.65,0,3.3,0,4.95-.06,1.44.14,2.39,2,2.33,1.63-.05,1.89-.85,1.86-2.15,0-1.77,0-3.55,0-5.33s-.37-3.72,2.53-3.25c1.19.19,1.47-.54,1.48-1.6,0-1.23-.35-1.91-1.73-1.84S107.34,145.13,105.94,145.13Zm-29.4,27c0,1.65,0,3.3,0,5,0,1.38,0,2.41,1.91,2.38s2-1,2-2.43-.41-2.9,1.9-2.78c1.09.06,2.71.67,2.73-1.51s-1.54-1.5-2.68-1.62c-.81-.09-1.92.3-1.92-1.12s1.07-1.14,1.91-1.18,1.53,0,2.29,0c1.27,0,1.3-.86,1.35-1.81.06-1.18-.5-1.39-1.57-1.55C77.2,164.41,76.52,165,76.54,172.13ZM75,152.45c0,6.82,0,6.82,6.72,6.77H82.9c1.16,0,2.28.16,2.25-1.68,0-1.67-.88-2-2.16-1.78-3.61.65-4.6-1-4.14-4.32.19-1.37,0-2.8.08-4.19s-.42-2.07-1.92-2.13-2.06.49-2,2C75.11,148.88,75.05,150.66,75,152.45Z" transform="translate(0 0)"/><path class="cls-3" d="M99.73,87.08c0-3.4.11-6.8,0-10.19-.12-2.89,2.22-2,3.49-2.26,10.78-2.23,17.69-8.52,20.49-19.19,1.63-6.23,1-6.88-5.35-5.26A24.63,24.63,0,0,0,101.09,64.6c-.3.68-.6,1.38-.92,2.05,0,.07-.24.06-.37.08-.69-3.13.07-5.7,2-8.41,6.67-9.34,6-21.54-1.24-30.55-1.6-2-2.34-1.43-3.62.2a25.31,25.31,0,0,0-.85,30.92c.52.74,1.11,1.42,1.59,2.16s.73,1.36-.55,2-1.32,0-1.74-.77C91,54.84,84.55,50.74,76,49.59c-2.72-.37-2.9.51-2.62,2.84,1.34,11.12,9.29,20,20.36,21.89,3.48.59,4.76,1.75,4.19,5.31-.39,2.44-.07,5-.47,7.59-3.39-6.47-7.94-11.41-14.72-14-2.95-1.11-7-3.22-8.94-1.31s.1,5.94,1.25,8.87c3.46,8.83,10.06,14,19.24,15.62,2.66.47,3.33,1.34,3.15,3.83-.22,3,0,6-.36,9.18-4.14-8.06-10.43-13.09-19.21-14.88-4.71-1-5-.66-4.28,4,1.7,10.41,9.5,18.5,20.45,20.61,2.66.51,3.33,1.37,3.09,3.84-.23,2.26,0,4.56-.86,7.1-.69-1.05-1.36-2.12-2.08-3.15-4.52-6.46-10.8-9.84-18.56-10.78-2.18-.27-2.6.35-2.32,2.46,1.45,10.69,7.21,17.9,18.19,22.11H44.75c4.7-2.76,8.66-5.1,12.63-7.41a48.09,48.09,0,0,1,6.33-3.54c5.36-2.12,7.71-5.07,6.09-11.4-1.5-5.86-.76-6,5.19-6.22.31-1.32-1-1.94-1.31-3-.7-2.15-1.81-1.72-3.36-.82-10.35,6-20.79,11.9-31.09,18-2.29,1.36-3,.91-3.95-1.38-14.94-37.9,8.36-81.72,48.28-90.4,4-.86,6.55-2.22,8.61-6,4.92-9.16,8.16-9.22,13.21-.2,2.14,3.83,4.68,5.35,8.8,6.28,15,3.41,27.41,11.32,37.34,23.14,1.74,2.08,1.74,2.92-.83,4.29-6.74,3.59-13.25,7.61-19.91,11.36a6,6,0,0,0-3.49,4.57c-.71,4.45-3.09,8.22-5.53,11.92,2.37,1.23,5.17-1,7.08,1.72.48.7,1.75-.6,2.6-1.08,8.95-5.13,17.95-10.2,26.79-15.51,2.51-1.51,3.29-.94,4.18,1.57,7.74,21.92,5.2,42.58-7.29,62.11-.88,1.37-1.73,2.23-3.59,2.22-14.78-.08-29.56,0-44.47-.28,6.09-2.7,11.24-6.38,14.25-12.45,1.86-3.75,4.94-9,2.27-11.52-2.49-2.38-7.87.54-11.6,2.5-4.64,2.44-8,6.21-11.43,10.76,0-3,0-6.06,0-9.09,0-1.83,1.51-1.33,2.52-1.55,11.8-2.52,19.62-10.74,21.19-21.75.5-3.53-.8-3.77-3.62-3.3-8.59,1.45-14.18,5.61-20.39,15.86,0-4.35.11-7.84,0-11.32-.1-2.44,1.55-2.11,3-2.37A25.34,25.34,0,0,0,124.3,74.32c.31-2.89-.65-3.25-3-2.83-9.6,1.66-16.63,6.66-20.57,15.79Z" transform="translate(0 0)"/><path class="cls-3" d="M133.47,152.05c0-2.28.06-3.55,0-4.81s.33-2.17,1.89-2.14c1.37,0,2.06.47,2,2-.09,3.31,0,6.62,0,9.93,0,.81.36,1.9-1,2.12a2.51,2.51,0,0,1-2.72-.83c-1.35-1.77-2.78-3.46-4.89-6.06,0,2.63,0,4.1,0,5.57,0,1.21-.68,1.47-1.73,1.4s-2.12.08-2.11-1.47c0-3.69,0-7.39,0-11.08,0-.62,0-1.33.81-1.47a2.75,2.75,0,0,1,2.81.73C130,147.7,131.38,149.47,133.47,152.05Z" transform="translate(0 0)"/><path class="cls-3" d="M68.5,155.38c-1.11-1.07-2.23-2.6-.94-3.65s3.44-.68,5.06-.25.91,2.11.61,3.23a5.66,5.66,0,0,1-5.82,4.53,6.55,6.55,0,0,1-6.68-4.7c-1-3.11-.49-6.13,2.39-8.16a6.57,6.57,0,0,1,7.83-.12c.74.49,1.77,1.24.88,2.05-.71.65-1.42,2.47-3,1.09-1.23-1.06-2.55-1.28-3.69,0a4.37,4.37,0,0,0-.56,4.67C65.24,155.86,66.72,156,68.5,155.38Z" transform="translate(0 0)"/><path class="cls-3" d="M98.79,150.49c0,3.5,0,7-4.25,8.43-3.86,1.27-7.43-.56-8.12-4.51a60.06,60.06,0,0,1-.35-7.61c-.06-1.43.86-1.64,2-1.69,1.28-.06,1.89.47,1.86,1.78a47.56,47.56,0,0,0,0,5.34c.14,1.62.32,3.58,2.63,3.47,2-.1,2.25-1.83,2.37-3.38.11-1.39-.07-2.8,0-4.2.09-1.22-.69-2.91,1.74-3s2.09,1.58,2.1,3.06Z" transform="translate(0 0)"/><path class="cls-3" d="M99.11,179.08c-2.38.74-4.17.55-5.16-1.89-.3-.77-.54-1.88-1.7-1.77-1.42.14-.92,1.36-.88,2.1.08,1.55-.59,1.91-2,1.93s-1.92-.67-1.87-2.08c.08-2.41-.25-4.87.1-7.23.23-1.55-1.68-4,1.48-4.63,5-.91,8,.21,9.26,3.21a4.1,4.1,0,0,1,.28,2.58C97.57,175.76,97.58,175.76,99.11,179.08Zm-6.42-10.26c-1-.07-1.32.57-1.36,1.62,0,1.35.86,1.3,1.75,1.3s1.76-.31,1.62-1.5S93.83,168.82,92.69,168.82Z" transform="translate(0 0)"/><path class="cls-3" d="M113.25,152.14a6.42,6.42,0,0,1,0-.76c.25-2-1-5,.6-5.69,2.24-1,5.18-.44,7.83-.49,1.22,0,1.34.92,1.34,1.86s-.34,1.46-1.3,1.49a17.16,17.16,0,0,0-1.9,0c-.9.14-2.44-.61-2.54.72-.15,1.94,1.67,1,2.59,1.08,1.22.12,2.27,0,2.25,1.72s-1.28,1.47-2.4,1.58c-.9.08-2.43-.57-2.5.88-.08,1.87,1.61,1,2.57,1.13a12,12,0,0,0,1.9,0c1.8,0,2,1.65,1.43,2.31-2.25,2.49-5.36.64-8.05,1.14-1.64.3-1.84-.82-1.81-2.1,0-1.65,0-3.3,0-5Z" transform="translate(0 0)"/><path class="cls-3" d="M112.61,172.35c0,.27,0,.15,0,0,0-7.46,0-7.44,7.67-6.9,1.24.08,2.25.07,2.2,1.78,0,1.52-1,1.55-2,1.57-.63,0-1.27,0-1.9,0-.81.07-2-.37-2,1s1.27.79,2,.94c1.2.23,3.11-.67,3,1.74-.12,2.12-1.85,1.12-2.92,1.36-.77.18-2-.48-2.09.93-.14,1.66,1.2,1.27,2.13,1.32s1.78,0,2.67,0,1.29.52,1.28,1.43,0,1.81-1.31,1.81c-2.42,0-4.84-.06-7.25,0-1.3,0-1.42-.72-1.42-1.69C112.62,176.06,112.61,174.4,112.61,172.35Z" transform="translate(0 0)"/><path class="cls-3" d="M100.91,172.22c0-7.41.27-7.62,7.85-6.77,1.23.13,1.81.39,1.83,1.74,0,1.5-.86,1.61-1.94,1.62a5.42,5.42,0,0,0-1.14,0c-1,.19-2.71-.55-2.57,1.23.11,1.4,1.66.67,2.55.75,1.17.1,2.24-.14,2.23,1.68s-1.06,1.27-2,1.47-3-1-2.84,1.25c.11,1.73,1.81.68,2.77,1,1.15.32,3.11-.88,3.19,1.5.09,2.68-2.08,1.7-3.34,1.73C100.93,179.57,100.93,179.52,100.91,172.22Z" transform="translate(0 0)"/><path class="cls-3" d="M105.94,145.13c1.4,0,2.8.06,4.19,0s1.73.61,1.73,1.84c0,1.06-.29,1.79-1.48,1.6-2.9-.47-2.55,1.48-2.53,3.25s0,3.56,0,5.33c0,1.3-.23,2.1-1.86,2.15-1.87.06-2.07-.89-2-2.33.05-1.65,0-3.3,0-4.95.07-2,.29-4-2.77-3.45-1.24.2-1.39-.75-1.4-1.71s.36-1.7,1.51-1.7h4.57Z" transform="translate(0 0)"/><path class="cls-3" d="M76.53,172.13c0-7.17.67-7.72,7.89-6.68,1.07.16,1.63.37,1.57,1.55,0,.95-.08,1.81-1.35,1.81-.76,0-1.53,0-2.29,0s-1.91-.2-1.91,1.18,1.11,1,1.92,1.12c1.14.12,2.7-.53,2.68,1.62s-1.64,1.57-2.73,1.51c-2.31-.12-1.94,1.42-1.9,2.78s-.09,2.39-2,2.43-2-1-1.91-2.38C76.58,175.43,76.54,173.78,76.53,172.13Z" transform="translate(0 0)"/><path class="cls-3" d="M75,152.45c0-1.79.07-3.57,0-5.35-.08-1.49.49-2,2-2s2,.68,1.92,2.13.11,2.82-.08,4.19c-.46,3.29.53,5,4.14,4.32,1.28-.23,2.14.11,2.16,1.78,0,1.84-1.09,1.67-2.25,1.68H81.76C75,159.27,75,159.27,75,152.45Z" transform="translate(0 0)"/><path class="cls-2" d="M92.69,168.82c1.14,0,1.89.35,2,1.42s-.64,1.5-1.62,1.5-1.8,0-1.75-1.3C91.37,169.39,91.69,168.75,92.69,168.82Z" transform="translate(0 0)"/></svg>