<svg id="Capa_1" data-name="Capa 1" xmlns="http://www.w3.org/2000/svg" viewBox="0 0 185.32 199.91"><defs><style>.cls-1{fill:#090909;}.cls-2{fill:#fdfdfd;}.cls-3{fill:#f9f9f9;}.cls-4{fill:#7c7c7c;}.cls-5{fill:#fff;}</style></defs><circle class="cls-1" cx="91.34" cy="106.17" r="84.67"/><path class="cls-2" d="M58.82,13.2l.18.06.06-.16a.77.77,0,0,0-.19,0S58.84,13.15,58.82,13.2Z" transform="translate(-7.32 -0.04)"/><path class="cls-2" d="M189.2,194.35l.19.09-.18-.11-.19-.09Z" transform="translate(-7.32 -0.04)"/><path class="cls-3" d="M192.64,83a12.58,12.58,0,0,1-5-.25c-.18-.06-.42.08-.62,0-.71-.08,0-1.75-1.24-1.16-.74.36-.29,1.33-.59,2s-.8.87-1.22.63c-1.19-.67-2,.44-3,.51l-3-10.3c.67-.43.59-1.13.51-1.73-.4-2.7.83-5.44-.27-8.12-.17-.43.32-.73.71-.94v0c-.08,1.83.93,2.35,2.56,2.13l0,0a23,23,0,0,1,.42,6.19c0,2.09,1.35,2.92,3,3.65a4.18,4.18,0,0,0,5.06-1,3.23,3.23,0,0,0,.21-4.28c-.91-1.42.67-3.61,2.48-3.68ZM179.32,71.43h0v3.21a.92.92,0,0,0,1,1c.69,0,1.07-.31,1.07-1,0-1.93,0-3.86,0-5.78a1.16,1.16,0,0,0-1.13-1.3c-.92-.06-1,.59-1,1.28Z" transform="translate(-7.32 -0.04)"/><path class="cls-2" d="M181.46,199.92h-2.15c.22-2.93-.92-6.14,1.73-8.58.75-.18,1.35-.3,1.32.88s.19,2.3,1.68,2.54h0a.81.81,0,0,0,.83.42h0c.71,1.1,1.87,1.15,3,1.28h0c.43,2.73-1.54,2.09-3,2.15h0c-.71-.47-1.42-1.69-2.13,0h0c-1,.38-.86-.3-.85-.87v-4.63h-.44Z" transform="translate(-7.32 -0.04)"/><path class="cls-2" d="M76.13,192.62v7.3H74c0-1.75.12-3.51,0-5.25S74.55,192.39,76.13,192.62Z" transform="translate(-7.32 -0.04)"/><path class="cls-3" d="M7.35,188.75c1.26-.11,1.3.7,1.3,1.64,0,3.17,0,6.35,0,9.53H7.78l-.43-.43Z" transform="translate(-7.32 -0.04)"/><path class="cls-3" d="M181.05,191.34c-2.66,2.44-1.52,5.65-1.74,8.58h-.85c0-1.9-.36-3.89.09-5.69s-.33-3.43.33-5.06h0a1.84,1.84,0,0,0,2.14,2.14Z" transform="translate(-7.32 -0.04)"/><path class="cls-3" d="M76.13,192.62c-1.58-.23-2.33.29-2.18,2s0,3.5,0,5.25h-.42c.15-2.86-.38-5.76.42-8.59h2.15v1.29Z" transform="translate(-7.32 -0.04)"/><path class="cls-3" d="M184.91,198.64c1.47-.06,3.44.58,3-2.15,2.2,1.45-.26,2.29-.44,3.43h-2.15Z" transform="translate(-7.32 -0.04)"/><path class="cls-3" d="M22.82,0l.74,1.5c-1.62-.45-2.62,0-2.63,1.94-.75-1.36-.75-1.36.6-3.44Z" transform="translate(-7.32 -0.04)"/><path class="cls-3" d="M131.16,1.75c.21-1.2,2.06-.36,2.15-1.71H135c.1,1.35,1.94.51,2.16,1.71l0,0a10.48,10.48,0,0,0-6,0Z" transform="translate(-7.32 -0.04)"/><path class="cls-3" d="M15.09,199.92c0-1-.92-1.37-1.37-2.06s-1.27-1.54.07-2.25l0,0a2.33,2.33,0,0,0,1.07,2.15A2.38,2.38,0,0,1,16,199.92Z" transform="translate(-7.32 -0.04)"/><path class="cls-3" d="M181.46,199.92v-6.77h.44v4.63c0,.57-.12,1.25.85.87v1.28Z" transform="translate(-7.32 -0.04)"/><path class="cls-3" d="M10.36,199.92c.22-.69-.55-1.95.73-2,1.06,0,1.22,1.12,1.42,2Z" transform="translate(-7.32 -0.04)"/><path class="cls-3" d="M27.11,1.32C27.39.88,28.05.71,28,0h2.15c-.05.6.49.76,1.12,1.3H27.13Z" transform="translate(-7.32 -0.04)"/><path class="cls-3" d="M126,1.76,126.86,0h1.29l.79,1.7a3.71,3.71,0,0,0-2.93,0Z" transform="translate(-7.32 -0.04)"/><path class="cls-2" d="M182.75,199.92v-1.28h2.16l.42,1.28Z" transform="translate(-7.32 -0.04)"/><path class="cls-3" d="M190.49,199.92a12.09,12.09,0,0,0,.39-2.28,14.31,14.31,0,0,0-.55-2.55c1.57,1.63.82,3.33,1,4.83Z" transform="translate(-7.32 -0.04)"/><path class="cls-2" d="M7.35,199.49l.43.43C7.41,200,7.26,199.86,7.35,199.49Z" transform="translate(-7.32 -0.04)"/><path class="cls-3" d="M46.47,18c-.14-2.31-.21-2,2-1.46a20.2,20.2,0,0,0,6.12.33c1.91-.13,3.8.13,5.71,0,2.77-.17,5.58.58,8.25-.83.53-.28,1.73-.51,1.87.69s-.85,1-1.51.88c-1.34-.27-1,.7-1,1.29,0,1.46-.69,1.79-2,1.76-1.91,0-4-.88-5.61,1a.94.94,0,0,1-1.2.17c-3.08-2.08-6.53-.88-9.8-1.1C46.64,20.53,46.63,20.67,46.47,18Z" transform="translate(-7.32 -0.04)"/><path class="cls-3" d="M174.11,17.59c-1.23-.44-1.26.06-1,1,.33,1.29-.16,2-1.6,2.09-2.14.12-4.46-.66-6.3,1.16a.65.65,0,0,1-.62,0c-3.36-2.19-7.1-.89-10.66-1.13-1.69-.12-3-.13-2.14-2.36a1.68,1.68,0,0,0,0-1.06c-.56-1.69.57-1.57,1.45-1.17,2.29,1.05,4.66.77,7,.72,3-.07,6.06-.1,9.08,0a6.22,6.22,0,0,0,3.83-.68c.69-.42,1.8-.69,2.18.36S174.84,17.71,174.11,17.59Z" transform="translate(-7.32 -0.04)"/><path class="cls-3" d="M41.11,18.28c.1,2.45-.13,2.66-2.54,2.36a25.2,25.2,0,0,0-5.21,0c-.43,0-.86,0-1.28,0A2.51,2.51,0,0,1,29.38,19c-.43-1.06.17-1.87,1-2.62,1-1,2.49-1,3.1-.26a2.71,2.71,0,0,0,3.54.57c2.48-1.39,4.67.51,7,.18.63-.08.77.48.62,1.06-.26,1-.52,1.92-.74,2.89-.14.65-.6.72-1.13.71s-.89-.19-.78-.91A2.42,2.42,0,0,0,41.11,18.28Z" transform="translate(-7.32 -0.04)"/><path class="cls-3" d="M146.36,18.34c.22,2.6-1.23,2.33-3,2.27a23,23,0,0,0-5.18,0c-2.31.46-4-1-3.57-2.9.37-1.7,3-2.54,4.5-1.42,1,.76,3.25,1,3.93.18s1.22-.07,1.8-.09c1.5,0,2.9.64,4.43.5.8-.08.77.64.52,1.24a11,11,0,0,0-1.11,2.76c-.06.53-.5.66-1,.6a.65.65,0,0,1-.6-.91C147.44,19.69,146.9,19.14,146.36,18.34Z" transform="translate(-7.32 -0.04)"/><path class="cls-3" d="M23.07,19.24c-2.33-2-2.62-4.2.68-2.45.23.11.57,0,.85,0,4.37,0,4.34,0,2.52,4-.38.82-1.36.92-1.49.63-.84-1.84-2.26-.56-3.37-.75-.83-.14-1.62-.17.81-1.45,2,.57,2,.68,1.92.81s0,.27.15.09a1,1,0,0,0,.15-.35A13.65,13.65,0,0,0,23.07,19.24Z" transform="translate(-7.32 -0.04)"/><path class="cls-3" d="M130.43,19.63a3.85,3.85,0,0,1-2.33,1.08c-1.39,0-1.94,0-1.87-1.94.09-2.38,0-3.34,2.64-2.05.93.45,2.25.12,3.39.07s1.62.31,1,1.47a5.67,5.67,0,0,0-.73,1.77c-.14.81-.12,1.58-1.29,1.5C129.7,21.42,131.07,20.24,130.43,19.63Z" transform="translate(-7.32 -0.04)"/><path class="cls-3" d="M64.09,11.23c-.48.34-.42.86-.42,1.35,0,.77-.15,1.48-1.05,1.59s-1.8.32-2.27-.67c-.82-1.74-1.76-2.87-3.87-1.56-.63.39-1.34-.17-1.85-.71l0,0A5.59,5.59,0,0,0,56.74,11c1.24-.74,2.25-.59,3.49.81,0-3.2,0-5.88,0-8.56,0-.72-.34-1.67.84-1.89l0,0c0,3.48,0,7,0,10.45,0,.59-.19,1.42.74,1.49,1.13.09.87-.83,1-1.49s-.37-1.44.49-1.63c.57-.13.74.53.8,1.05Z" transform="translate(-7.32 -0.04)"/><path class="cls-3" d="M129.87,12.51c-.62-.07-.73.54-1.29,1V6.81c0-.82,0-1.64-1.16-1.59s-1,.84-1,1.54c0,1.43,0,2.86,0,4.29-.06,1.25,0,2.38,2.22,2.69-1.56.53-2.51.86-2.58-.43-.13-2.57-.08-5.15,0-7.71,0-.57.51-1.12.79-1.68v0c1.56.12,2.18,1,2.15,2.52,0,1.12,0,2.25,0,3.37,0,.64-.05,1.31.85,1.42l0,0c0,.42,0,.85,0,1.27Z" transform="translate(-7.32 -0.04)"/><path class="cls-3" d="M169.85,11.66c-.79.05-.84.61-.87,1.21,0,1.32-1,1.37-2,1.35s-1.47-.66-1.47-1.67A83.61,83.61,0,0,1,166,2.31V9.89c0,.65,0,1.29,0,1.93s.24,1.45,1.15,1.49c1.11,0,.91-.81,1-1.5s-.36-1.54.47-1.64,1.16.68,1.25,1.47Z" transform="translate(-7.32 -0.04)"/><path class="cls-3" d="M24.54,12.51c-.78,0-.64.84-1,1.16-.83.78-1.8,1.15-2.45-.3h0c1.61.24,2.35-.32,2.17-2.07a19.29,19.29,0,0,1,0-4c.18-1.74-.56-2.3-2.17-2.07h0a1.06,1.06,0,0,1,1.28-1.07c.46.11,1.15.73,1.14,1.1a34.26,34.26,0,0,0,1,7.27Z" transform="translate(-7.32 -0.04)"/><path class="cls-3" d="M32.7,8.22l-2-1.46c2.28.42,1.14-1.43,2-1.83S34.61,5,35,3.49c.51,1.74-.44,1.69-1.31,1.72-.56,0-1,.22-.95.88a.72.72,0,0,0,.81.79c1.73-.17,1.79.92,1.71,2.17a8.29,8.29,0,0,0,.31,3.12l-.75.08c0-1.16,0-2.33,0-3.49,0-.55.1-1.22-.69-1.35s-1.33-.14-1.44.79Z" transform="translate(-7.32 -0.04)"/><path class="cls-3" d="M64.54,6.5c-.26.45-.57.87-1.16.75S62.82,6.5,62.81,6c0-1-.07-2,0-3,.11-1.33-.42-1.87-1.72-1.69l0,0c2.25-.79,2.43-.59,2.63,1.55.12,1.21-.91,2.75.81,3.61Z" transform="translate(-7.32 -0.04)"/><path class="cls-3" d="M146.65,6.92c0,.48.06,1-.43,1.3l0,0c-.34-1.39-1.46-.83-2.24-.77-1,.08-.71,1-.75,1.67s0,1.4,0,2.11l0,0c-1.61-2-1.14-3.94,1.13-4.29,1.21-.2,1-1,1-1.74h0c1.21,0,.57,1.37,1.29,1.72Z" transform="translate(-7.32 -0.04)"/><path class="cls-3" d="M145.35,5.2c-1.3-.16-3.24.74-3.06-1.87a.59.59,0,0,0-.71-.61,1,1,0,0,0-.92,1c-.08.78,0,1.67-1.47,1.34.63-.6.48-1.41.83-2.06.59-1.07,2.87-1.16,2.92-.13.09,1.79,1.37,1.82,2.41,2.32Z" transform="translate(-7.32 -0.04)"/><path class="cls-3" d="M169.87,11.64c.9,0,1.27.84,1.91,1.24.85.53,1.79,1.08,2.36-.36l0,0c.47.35,1.37.41,1.13,1.26-.19.7-.94.42-1.47.48a3.39,3.39,0,0,1-4-2.57Z" transform="translate(-7.32 -0.04)"/><path class="cls-3" d="M168.14,1.32c1.06.16.78,1,.87,1.67.15,1.17-.38,2.39.4,3.53.41.59-.21.94-.66,1-.63.13-.6-.45-.6-.86,0-1.78,0-3.57,0-5.35Z" transform="translate(-7.32 -0.04)"/><path class="cls-3" d="M27.55,5.21c-.59-1.88,0-2.57,2.28-2.08,1.52.32,2.21,0,2.33-1.57,1,.86.32,1.6-.12,2.25s-1.23.46-1.88.11c-1.45-.79-2.26-.25-2.59,1.27Z" transform="translate(-7.32 -0.04)"/><path class="cls-3" d="M157,6.93a7.52,7.52,0,0,0,0,4.91c-.26-.83-2-.22-1.46-1.59C156,9.13,154.15,7,157,6.91Z" transform="translate(-7.32 -0.04)"/><path class="cls-3" d="M159.55,10.78a3.51,3.51,0,0,0,3.19-.17c1.27-.81,2.23.19,2.15,2.33-.52-1.35-1.15-2-2.46-1.27s-2.31.67-2.9-.87Z" transform="translate(-7.32 -0.04)"/><path class="cls-3" d="M43.9,7.79c0,3.07,0,3.11,3.13,3.67a2.18,2.18,0,0,1-3.27-.29,2.21,2.21,0,0,1,.12-3.4Z" transform="translate(-7.32 -0.04)"/><path class="cls-3" d="M138.05,6.91c2.85,0,2.85,0,2.25,5.18a8,8,0,0,1-.48-2.57C140,8,139.24,7.37,138,6.92Z" transform="translate(-7.32 -0.04)"/><path class="cls-3" d="M35.39,2.37c1.31-.19,2.5-.65,2.52,1.26,0,1.06,1,1,2,1.44-1.35.11-2.45.55-2.49-1.15C37.39,2.62,35.94,3.43,35.39,2.37Z" transform="translate(-7.32 -0.04)"/><path class="cls-3" d="M50.33,11.21a14.7,14.7,0,0,0-.43-4.28l0,0c2.89.47.81,2.6,1.29,3.87l0,0-.84.42Z" transform="translate(-7.32 -0.04)"/><path class="cls-3" d="M149.21,10.8c-1.57-.7-1-1.93-.44-2.81.82-1.32,2.12-1.44,3.47-.65l0,0c-2.8.17-3.52,1-3,3.42Z" transform="translate(-7.32 -0.04)"/><path class="cls-3" d="M42.61,12.93c1.81.48,3.57,1.42,5.54.39A3.94,3.94,0,0,1,42.59,13Z" transform="translate(-7.32 -0.04)"/><path class="cls-3" d="M40.89,6.91l.84-.43,0,0c-.14.82-.34,1.64-.42,2.47s0,1.5,0,2.65c-1.4-1.76-.73-3.24-.43-4.7Z" transform="translate(-7.32 -0.04)"/><path class="cls-3" d="M157.76,12.81c2.19.7,4,1.59,5.8.31C162,14.68,159.81,14.62,157.76,12.81Z" transform="translate(-7.32 -0.04)"/><path class="cls-3" d="M58.2,5.32a17.73,17.73,0,0,0-4.6,0C55.17,4.34,56.73,3.87,58.2,5.32Z" transform="translate(-7.32 -0.04)"/><path class="cls-3" d="M148.35,5.19a4.23,4.23,0,0,1,5.12,0h-5.1Z" transform="translate(-7.32 -0.04)"/><path class="cls-3" d="M131.17,13.36c1.76,0,3.56,1.15,5.28-.37-1.23,1.61-3.28,1.67-5.3.39Z" transform="translate(-7.32 -0.04)"/><path class="cls-3" d="M66.24,13.57c1.24-.17,2.12-.26,3-.41.39-.07.72-.09.76.4a.5.5,0,0,1-.47.59C68.52,14.2,67.46,14.5,66.24,13.57Z" transform="translate(-7.32 -0.04)"/><path class="cls-3" d="M21.1,13.37a16.38,16.38,0,0,1,0-8.17h0v8.16Z" transform="translate(-7.32 -0.04)"/><path class="cls-3" d="M132.87,3.9c1.21-1.6,2.42-.83,4.07,0h-4Z" transform="translate(-7.32 -0.04)"/><path class="cls-3" d="M184.47,63.65c1.49-1.59,3.16-.71,4.8-.33a22,22,0,0,0-4.79.35Z" transform="translate(-7.32 -0.04)"/><path class="cls-3" d="M188.77,65.82c-1.28,0-2.7-.43-3.51,1.27.52-2.36,1.45-2.62,3.52-1.29Z" transform="translate(-7.32 -0.04)"/><path class="cls-3" d="M25.41,12.93c1.62.29,3.1,1.51,4.87.88-1.71.25-3.52,1.06-4.89-.86Z" transform="translate(-7.32 -0.04)"/><path class="cls-3" d="M158.24,5.62c1.49-1.13,3-1.95,4.75-.43l0,0a15.57,15.57,0,0,0-4.71.43Z" transform="translate(-7.32 -0.04)"/><path class="cls-3" d="M183.44,72.56c1.46,0,2.49,1.29,4,1.13A3.35,3.35,0,0,1,183.44,72.56Z" transform="translate(-7.32 -0.04)"/><path class="cls-3" d="M145.7,13.09c-.89,1.85-2.4.95-3.79.71C143,13,144.81,14.72,145.7,13.09Z" transform="translate(-7.32 -0.04)"/><path class="cls-3" d="M40,12.07c.59.61.71,1.55.09,1.87a3.72,3.72,0,0,1-3.7-.27c1.1-1,3.71,1.86,3.59-1.59Z" transform="translate(-7.32 -0.04)"/><path class="cls-3" d="M47.76,5.21H43.47l0,0a3,3,0,0,1,4.32,0Z" transform="translate(-7.32 -0.04)"/><path class="cls-3" d="M30.15,10.79c-1.31,1.75-2.17,1.75-3.46,0h0a4.28,4.28,0,0,0,3.42,0Z" transform="translate(-7.32 -0.04)"/><path class="cls-3" d="M40.46,6.92c-2.84.24-2.8,2.21-2.58,4.29v0a4,4,0,0,1-.33-3.48c.37-1.6,1.92-.54,2.9-.84Z" transform="translate(-7.32 -0.04)"/><path class="cls-3" d="M24.12,3.48c.26-.23.54-.65.79-.63.52,0,.28.45.23.79C25,4.4,25,5.17,24.88,6.07a3.29,3.29,0,0,1-.77-2.59Z" transform="translate(-7.32 -0.04)"/><path class="cls-3" d="M54.63,11.23c-1.44-.51-1.35-1.58-1.08-3,1,1,.65,2.14,1.1,3Z" transform="translate(-7.32 -0.04)"/><path class="cls-3" d="M65.81,5.19A1.07,1.07,0,0,1,67,4.79c.87.2,2.47-.59,2.47.6,0,.93-1.14-.51-1.91-.22a5.58,5.58,0,0,1-1.69,0Z" transform="translate(-7.32 -0.04)"/><path class="cls-3" d="M188.82,69.22l-2.47-1.12a2.67,2.67,0,0,1,2.72.6Z" transform="translate(-7.32 -0.04)"/><path class="cls-3" d="M138,8.5a3.37,3.37,0,0,1,0,3.35C137.85,10.75,138.26,9.63,138,8.5Z" transform="translate(-7.32 -0.04)"/><path class="cls-3" d="M174.15,6.05c-.64-1.56-2-.57-3-.84v0c.9-.8,2-.49,3-.36,1.32.19.72.79,0,1.24Z" transform="translate(-7.32 -0.04)"/><path class="cls-3" d="M181.47,63.65l1.6,1.2c-.4.71-1.15.58-1.6,1l0,0c0-.71,0-1.42,0-2.13Z" transform="translate(-7.32 -0.04)"/><path class="cls-3" d="M26.27,7.34a4.49,4.49,0,0,1,3,1.29l0,0a3,3,0,0,1-3-1.3Z" transform="translate(-7.32 -0.04)"/><path class="cls-3" d="M152.67,7.77c1.19,1.12,1.19,1.9,0,3l0,0a3.71,3.71,0,0,0,0-3Z" transform="translate(-7.32 -0.04)"/><path class="cls-3" d="M32.72,8.2c.61,1,1.22,1.9,0,3.47V8.22Z" transform="translate(-7.32 -0.04)"/><path class="cls-3" d="M57.64,7.79,54.42,7.4c1.47-.65,2.45-.81,3.24.37Z" transform="translate(-7.32 -0.04)"/><path class="cls-3" d="M143.21,11.21c.64.06,1.33-.12,1.87.48-.72.28-1.49.9-1.89-.46Z" transform="translate(-7.32 -0.04)"/><path class="cls-3" d="M146.22,8.22c-.17,1,.25,2,.2,3a2.32,2.32,0,0,1-.22-3.07Z" transform="translate(-7.32 -0.04)"/><path class="cls-3" d="M152.24,11.23c-.87,1.4-1.73.76-2.6,0l0,0h2.56Z" transform="translate(-7.32 -0.04)"/><path class="cls-3" d="M132,11.21a4.72,4.72,0,0,1,2.65.45,2.43,2.43,0,0,1-2.66-.43Z" transform="translate(-7.32 -0.04)"/><path class="cls-3" d="M40,12.08c-.82,0-1.71.13-2.14-.85v0c.76.19,1.86-.5,2.15.86Z" transform="translate(-7.32 -0.04)"/><path class="cls-3" d="M160.39,7.34a1.6,1.6,0,0,1,2.4.2c-.95.4-1.62-.41-2.38-.18Z" transform="translate(-7.32 -0.04)"/><path class="cls-3" d="M188.35,72.89c-.38,0-.4-.34-.4-.62s0-.61.4-.61.39.34.39.61S188.72,72.85,188.35,72.89Z" transform="translate(-7.32 -0.04)"/><path class="cls-3" d="M43.88,7.77c.86-1.21,1.9-1.12,3-.43l0,0a7.25,7.25,0,0,0-3,.43Z" transform="translate(-7.32 -0.04)"/><path class="cls-3" d="M179.31,63.22c.86-.56,1.67-.9,2.16.43v0l-2.14-.43Z" transform="translate(-7.32 -0.04)"/><path class="cls-3" d="M28.42,5.62a2.24,2.24,0,0,1,1.82.65,1.25,1.25,0,0,1-1.84-.63Z" transform="translate(-7.32 -0.04)"/><path class="cls-3" d="M132.89,8.2c.83,0,1.71-.12,2.15.86v0a2.6,2.6,0,0,1-2.15-.86Z" transform="translate(-7.32 -0.04)"/><path class="cls-3" d="M185.34,70.1c.67.08,1.57-.27,1.72.86v0a2.52,2.52,0,0,1-1.73-.86Z" transform="translate(-7.32 -0.04)"/><path class="cls-3" d="M189.62,65.8c.1-.53.14-1.12.95-1.08.08.73-.3,1-.93,1.1Z" transform="translate(-7.32 -0.04)"/><path class="cls-3" d="M149.77,13.86c1,0,1.56-.23,2.1.18A2.15,2.15,0,0,1,149.77,13.86Z" transform="translate(-7.32 -0.04)"/><path class="cls-3" d="M53.62,13.57a1,1,0,0,1,1.23.06.35.35,0,0,1-.06.34C54.35,14.26,54.07,13.92,53.62,13.57Z" transform="translate(-7.32 -0.04)"/><path class="cls-3" d="M58.93,7.34l.29-1.78c.58,1,.93,1.49-.27,1.8Z" transform="translate(-7.32 -0.04)"/><path class="cls-3" d="M159.53,10.8c-.89-.1-.87-.68-.8-1.4.69.3.73.86.82,1.38Z" transform="translate(-7.32 -0.04)"/><path class="cls-3" d="M47.77,8.2c.64.63.45,1.37,0,2.12V8.22Z" transform="translate(-7.32 -0.04)"/><path class="cls-3" d="M134.61,6.05a1.55,1.55,0,0,1,1.72.86v0a1.57,1.57,0,0,1-1.73-.86Z" transform="translate(-7.32 -0.04)"/><path class="cls-3" d="M137.19,1.75c.43.07.85.18.76.74,0,.14-.31.36-.39.33-.51-.19-.32-.67-.39-1Z" transform="translate(-7.32 -0.04)"/><path class="cls-3" d="M132,11.23c-.4-.07-.85-.06-1-.58,0-.06.16-.22.25-.22.56,0,.66.35.72.78Z" transform="translate(-7.32 -0.04)"/><path class="cls-3" d="M164.25,7.33c.08-.37-.13-.86.39-1.06a.33.33,0,0,1,.3.17c.1.52-.31.7-.66.92Z" transform="translate(-7.32 -0.04)"/><path class="cls-3" d="M153.75,13.55a1.58,1.58,0,0,1-.46.18c-.2,0-.44-.09-.28-.35a.68.68,0,0,1,.47-.28C153.7,13.07,153.84,13.23,153.75,13.55Z" transform="translate(-7.32 -0.04)"/><path class="cls-3" d="M168.13,1.34H166.2c.86-.65,1.42-.53,1.94,0Z" transform="translate(-7.32 -0.04)"/><path class="cls-3" d="M130.31,6.48a.8.8,0,0,1,.86.86v0a.81.81,0,0,1-.86-.87Z" transform="translate(-7.32 -0.04)"/><path class="cls-3" d="M27.13,1.34a1.07,1.07,0,0,1-1,.52S26,1.73,26,1.69c.24-.5.71-.3,1.1-.37Z" transform="translate(-7.32 -0.04)"/><path class="cls-3" d="M65.83,8.65c0,.32.47.57.19.95a.45.45,0,0,1-.34-.1.51.51,0,0,1,.13-.87Z" transform="translate(-7.32 -0.04)"/><path class="cls-3" d="M29.28,8.63a.8.8,0,0,1,.86.86l0,0a.81.81,0,0,1-.86-.86Z" transform="translate(-7.32 -0.04)"/><path class="cls-3" d="M148.37,5.21c-.06.31-.06.67-.53.64a.17.17,0,0,1-.13-.13c0-.47.34-.47.64-.53Z" transform="translate(-7.32 -0.04)"/><path class="cls-3" d="M138,6.92c-.48-.34-.44-.8-.32-1.39.54.46.24,1,.34,1.38Z" transform="translate(-7.32 -0.04)"/><path class="cls-3" d="M130.3,2.61a.8.8,0,0,1,.86-.86v0a.8.8,0,0,1-.86.86Z" transform="translate(-7.32 -0.04)"/><path class="cls-3" d="M126,3.49a1.06,1.06,0,0,1,0-1.73h0V3.49Z" transform="translate(-7.32 -0.04)"/><path class="cls-3" d="M40.44,6.91l.1-.94h.25c0,.31.06.63.1.94h-.45Z" transform="translate(-7.32 -0.04)"/><path class="cls-3" d="M134.59,6.07c-.47,0-1,.06-1.29-.43l0,0c.47,0,1-.06,1.29.43Z" transform="translate(-7.32 -0.04)"/><path class="cls-3" d="M132.9,3.92V5.19l0,0a.74.74,0,0,1,0-1.31Z" transform="translate(-7.32 -0.04)"/><path class="cls-3" d="M24.11,3.48a.65.65,0,0,1-.33-.83s.1-.07.16-.11l.18.94Z" transform="translate(-7.32 -0.04)"/><path class="cls-3" d="M129.88,3.49l-.18.93c-.06,0-.15-.07-.16-.11a.66.66,0,0,1,.33-.84Z" transform="translate(-7.32 -0.04)"/><path class="cls-3" d="M30.12,10.77V9.51l0,0c.54.43.54.87,0,1.3Z" transform="translate(-7.32 -0.04)"/><path class="cls-3" d="M135.45,10.78V9.5h0c.55.43.54.87,0,1.31Z" transform="translate(-7.32 -0.04)"/><path class="cls-3" d="M51.62,11.66a.93.93,0,0,1-.43-.86l0,0a.91.91,0,0,1,.43.86Z" transform="translate(-7.32 -0.04)"/><path class="cls-3" d="M171.14,9.51a4.76,4.76,0,0,1-.31-.47l.15-.11.18.56Z" transform="translate(-7.32 -0.04)"/><path class="cls-3" d="M129.87,3.47a.91.91,0,0,1,.43-.86v0a.91.91,0,0,1-.43.86Z" transform="translate(-7.32 -0.04)"/><path class="cls-3" d="M126,3.47a1,1,0,0,1,.86.43v0a1,1,0,0,1-.86-.43Z" transform="translate(-7.32 -0.04)"/><path class="cls-3" d="M27.57,5.19a.94.94,0,0,1,.85.43l0,0a.93.93,0,0,1-.85-.43Z" transform="translate(-7.32 -0.04)"/><path class="cls-3" d="M43.47,5.21a1,1,0,0,1-.86.43l0,0a.93.93,0,0,1,.86-.43Z" transform="translate(-7.32 -0.04)"/><path class="cls-3" d="M47.77,5.19l.55.17-.11.16-.45-.31Z" transform="translate(-7.32 -0.04)"/><path class="cls-3" d="M130.3,6.49,130,6l.16-.11c.06.18.12.37.17.55Z" transform="translate(-7.32 -0.04)"/><path class="cls-3" d="M173.29,6.48a.91.91,0,0,1,.86-.43v0a.94.94,0,0,1-.86.43Z" transform="translate(-7.32 -0.04)"/><path class="cls-3" d="M26.26,7.35l-.56-.16L25.81,7l.46.31Z" transform="translate(-7.32 -0.04)"/><path class="cls-3" d="M163,5.19l.55.17-.11.16L163,5.21Z" transform="translate(-7.32 -0.04)"/><path class="cls-3" d="M132,7.79a1,1,0,0,1-.86-.43v0a.91.91,0,0,1,.86.43Z" transform="translate(-7.32 -0.04)"/><path class="cls-3" d="M159.53,7.77a.93.93,0,0,1,.86-.43l0,0a1,1,0,0,1-.86.43Z" transform="translate(-7.32 -0.04)"/><path class="cls-3" d="M164.28,7.36l-.47.31a1.74,1.74,0,0,1-.1-.16l.54-.18Z" transform="translate(-7.32 -0.04)"/><path class="cls-3" d="M58.52,7.78c-.29.44-.59.44-.88,0l0,0h.86Z" transform="translate(-7.32 -0.04)"/><path class="cls-3" d="M132.88,8.22a1,1,0,0,1-.86-.43v0a.91.91,0,0,1,.86.43Z" transform="translate(-7.32 -0.04)"/><path class="cls-3" d="M159.55,7.79l-.17.55-.16-.11.31-.46Z" transform="translate(-7.32 -0.04)"/><path class="cls-3" d="M189.64,65.82q-.44.65-.87,0v0h.84Z" transform="translate(-7.32 -0.04)"/><path class="cls-3" d="M185.32,70.12l-.55-.18.11-.16.46.32Z" transform="translate(-7.32 -0.04)"/><path class="cls-3" d="M131.15,13.38a.94.94,0,0,1-.86-.44h0a.91.91,0,0,1,.86.43Z" transform="translate(-7.32 -0.04)"/><path class="cls-3" d="M42.59,13,42,12.77l.11-.16.46.32Z" transform="translate(-7.32 -0.04)"/><path class="cls-3" d="M25.39,13a.92.92,0,0,1-.85-.44h0a.91.91,0,0,1,.86.43Z" transform="translate(-7.32 -0.04)"/><path class="cls-3" d="M58.82,13.2s0-.15,0-.15a.77.77,0,0,1,.19,0l-.06.16Z" transform="translate(-7.32 -0.04)"/><path class="cls-3" d="M49.9,12.07a.91.91,0,0,1,.43-.86h0a1,1,0,0,1-.43.87Z" transform="translate(-7.32 -0.04)"/><path class="cls-3" d="M157.4,6.5l-.43.43,0,0,.43-.43Z" transform="translate(-7.32 -0.04)"/><path class="cls-3" d="M152.67,10.8l-.43.42h0l.43-.43Z" transform="translate(-7.32 -0.04)"/><path class="cls-3" d="M149.64,11.23c-.14-.15-.29-.29-.43-.43l0,0,.43.42Z" transform="translate(-7.32 -0.04)"/><path class="cls-3" d="M135.47,10.8l-.11.17.09-.19Z" transform="translate(-7.32 -0.04)"/><path class="cls-3" d="M129.87,11.21,130,11l-.08.2Z" transform="translate(-7.32 -0.04)"/><path class="cls-3" d="M146.64,6.91l.1-.17-.09.18Z" transform="translate(-7.32 -0.04)"/><path class="cls-3" d="M173.74,12.06c.14.15.28.29.43.43l0,0c-.14-.15-.28-.29-.43-.43Z" transform="translate(-7.32 -0.04)"/><path class="cls-3" d="M49.9,6.93l-.17-.11.19.09Z" transform="translate(-7.32 -0.04)"/><path class="cls-3" d="M157.83,6.07c-.14.14-.29.28-.43.43l0,0,.43-.43Z" transform="translate(-7.32 -0.04)"/><path class="cls-3" d="M26.69,10.79l-.18-.1.19.09Z" transform="translate(-7.32 -0.04)"/><path class="cls-3" d="M64.52,6.48,65,6.05l0,0c-.15.14-.29.28-.43.43Z" transform="translate(-7.32 -0.04)"/><path class="cls-3" d="M171.58,9.92l.18.11-.19-.09Z" transform="translate(-7.32 -0.04)"/><path class="cls-3" d="M41.73,6.48c.15-.14.29-.29.43-.43l0,0-.43.43Z" transform="translate(-7.32 -0.04)"/><path class="cls-3" d="M171.57,9.94l-.43-.43,0,0,.42.43Z" transform="translate(-7.32 -0.04)"/><path class="cls-3" d="M170.72,5.63l-.1.18.09-.19Z" transform="translate(-7.32 -0.04)"/><path class="cls-3" d="M157.81,6.05c.14-.15.29-.29.43-.43l0,0c-.14.14-.29.28-.43.43Z" transform="translate(-7.32 -0.04)"/><path class="cls-3" d="M65.4,5.64c-.15.14-.29.28-.43.43l0,0,.43-.43Z" transform="translate(-7.32 -0.04)"/><path class="cls-3" d="M42.61,5.64l-.43.43,0,0c.15-.14.29-.29.43-.43Z" transform="translate(-7.32 -0.04)"/><path class="cls-3" d="M135.45,9.5,135,9.08v0c.15.14.29.29.43.43Z" transform="translate(-7.32 -0.04)"/><path class="cls-3" d="M170.71,5.62c.14-.14.29-.28.43-.43v0l-.43.42Z" transform="translate(-7.32 -0.04)"/><path class="cls-3" d="M133.3,5.64c-.14-.15-.28-.29-.43-.43l0,0,.42.43Z" transform="translate(-7.32 -0.04)"/><path class="cls-3" d="M65.38,5.62c.14-.14.29-.28.43-.43v0l-.42.43Z" transform="translate(-7.32 -0.04)"/><path class="cls-3" d="M65,12.07l.18.1L65,12.08Z" transform="translate(-7.32 -0.04)"/><path class="cls-3" d="M184.48,63.67l-.11.17.1-.19Z" transform="translate(-7.32 -0.04)"/><path class="cls-3" d="M49.47,12.5l.43-.43,0,0-.43.43Z" transform="translate(-7.32 -0.04)"/><path class="cls-3" d="M173.71,12.09l-.17-.11.2.08Z" transform="translate(-7.32 -0.04)"/><path class="cls-3" d="M64.53,11.64c.15.14.29.28.43.43h0c-.15-.14-.29-.28-.43-.43Z" transform="translate(-7.32 -0.04)"/><path class="cls-3" d="M51.64,11.64l.17.11-.19-.09Z" transform="translate(-7.32 -0.04)"/><path class="cls-3" d="M178.88,63.65l.43-.43v0l-.43.43Z" transform="translate(-7.32 -0.04)"/><path class="cls-3" d="M65.81,8.63l.43-.43h0l-.43.44Z" transform="translate(-7.32 -0.04)"/><path class="cls-3" d="M187.06,71l.18.11-.19-.09Z" transform="translate(-7.32 -0.04)"/><path class="cls-3" d="M66.69,7.78l-.43.43h0l.43-.43Z" transform="translate(-7.32 -0.04)"/><path class="cls-3" d="M47.34,7.76l.43.44,0,0-.43-.43Z" transform="translate(-7.32 -0.04)"/><path class="cls-3" d="M172,7.77l.43-.43,0,0-.44.43Z" transform="translate(-7.32 -0.04)"/><path class="cls-3" d="M152.24,7.34l.43.43,0,0c-.14-.15-.28-.29-.43-.43Z" transform="translate(-7.32 -0.04)"/><path class="cls-3" d="M130.29,12.94l-.42-.43h0c.15.14.29.28.43.43Z" transform="translate(-7.32 -0.04)"/><path class="cls-3" d="M49.49,12.52l-.11.17.09-.19Z" transform="translate(-7.32 -0.04)"/><path class="cls-3" d="M66.67,7.77l.43-.43,0,0-.43.42Z" transform="translate(-7.32 -0.04)"/><path class="cls-3" d="M58.5,7.77l.43-.43,0,0-.43.42Z" transform="translate(-7.32 -0.04)"/><path class="cls-3" d="M46.91,7.34l.43.42,0,0-.43-.43Z" transform="translate(-7.32 -0.04)"/><path class="cls-3" d="M172.43,7.34c.14-.15.28-.29.43-.43l0,0c-.15.14-.29.28-.43.43Z" transform="translate(-7.32 -0.04)"/><path class="cls-3" d="M64.11,11.21l.42.43h0l-.43-.42Z" transform="translate(-7.32 -0.04)"/><path class="cls-3" d="M136.33,6.91l.18.11-.19-.09Z" transform="translate(-7.32 -0.04)"/><path class="cls-3" d="M67.1,7.34l.11-.18-.09.2Z" transform="translate(-7.32 -0.04)"/><path class="cls-3" d="M172,7.79l-.1.17.09-.19Z" transform="translate(-7.32 -0.04)"/><path class="cls-3" d="M173.3,6.5l-.42.43,0,0c.14-.14.28-.29.43-.43Z" transform="translate(-7.32 -0.04)"/><path class="cls-3" d="M182.47,93.81c-.24-1.74-.49-3.47-.73-5.21,2.18-.46,2.53,1.18,2.58,2.61C184.36,92.29,184.43,93.91,182.47,93.81Z" transform="translate(-7.32 -0.04)"/><path class="cls-3" d="M184,194.76c-1.49-.24-1.72-1.39-1.68-2.54s-.57-1.06-1.32-.88v0a4.28,4.28,0,0,0,.43-2.56v0c.61.22.77.78,1,1.38,2.08-2.16,4.43-2.8,7.16-1.38l0,0c-.85,0-1.7,0-2.55,0-3.55.06-4.87,2.34-3.16,5.39A2,2,0,0,1,184,194.76Z" transform="translate(-7.32 -0.04)"/><path class="cls-3" d="M182.87,98.11,182.66,95c1,0,1.36.55,1.38,1.48S183.94,98.08,182.87,98.11Z" transform="translate(-7.32 -0.04)"/><path class="cls-3" d="M189.64,190.9c-1.18,1.69-2-.27-3.66,0,1.68-.84,2.61.12,3.65,0Z" transform="translate(-7.32 -0.04)"/><path class="cls-3" d="M187.9,196.48c-1.12-.13-2.28-.18-3-1.28A4.24,4.24,0,0,1,187.9,196.48Z" transform="translate(-7.32 -0.04)"/><path class="cls-3" d="M185.78,192.6a2.29,2.29,0,0,1,1.92,1.23c-1,0-1.74-.16-1.95-1.2Z" transform="translate(-7.32 -0.04)"/><path class="cls-3" d="M179.31,188.74c.72-1.29,1.44-.68,2.16,0v0h-2.14Z" transform="translate(-7.32 -0.04)"/><path class="cls-3" d="M185.75,192.63c-1-.21-1-.72-.37-1.52.55.46.32,1,.4,1.49Z" transform="translate(-7.32 -0.04)"/><path class="cls-3" d="M183.33,100.66v-.08c.27-.17.55-.41.84,0,0,0-.09.3-.12.3C183.81,100.8,183.57,100.72,183.33,100.66Z" transform="translate(-7.32 -0.04)"/><path class="cls-3" d="M190.48,189.62a.81.81,0,0,1-.86-.86l0,0a.8.8,0,0,1,.86.86Z" transform="translate(-7.32 -0.04)"/><path class="cls-3" d="M190.5,190a.8.8,0,0,1-.86.86h0l.86-.86Z" transform="translate(-7.32 -0.04)"/><path class="cls-3" d="M184.89,195.19a.81.81,0,0,1-.83-.42A.81.81,0,0,1,184.89,195.19Z" transform="translate(-7.32 -0.04)"/><path class="cls-3" d="M178.88,189.17c.14-.14.28-.29.43-.43v0l-.43.42Z" transform="translate(-7.32 -0.04)"/><path class="cls-3" d="M190.5,189.6c.29.15.29.3,0,.44h0c0-.14,0-.28,0-.42Z" transform="translate(-7.32 -0.04)"/><path class="cls-3" d="M189.2,194.35l-.18-.11.19.09Z" transform="translate(-7.32 -0.04)"/><path class="cls-3" d="M189.21,194.33l.18.11-.19-.09Z" transform="translate(-7.32 -0.04)"/><path class="cls-3" d="M21.16,141.32c1,1.54,2.3,2.94,2.57,4.87C20.58,146.19,20.13,145.32,21.16,141.32Z" transform="translate(-7.32 -0.04)"/><path class="cls-3" d="M10.36,188.74a.88.88,0,0,1,.85,1c-.1,1.71.27,3.46-.44,5.15-.68-2-.28-4.11-.42-6.15Z" transform="translate(-7.32 -0.04)"/><path class="cls-3" d="M73.55,190.91a1.56,1.56,0,0,1,.32-2.51c.82-.56,1.68-.83,2.27.34l0,0c-1.53-.11-2.59.35-2.55,2.13Z" transform="translate(-7.32 -0.04)"/><path class="cls-3" d="M14.23,192.24c.42,0,.83-.07,1.25-.05s1.21-.24,1.55.36c.25.44.14.87-.54.58a7.11,7.11,0,0,0-.9-.48,10.6,10.6,0,0,0-1.38-.16Z" transform="translate(-7.32 -0.04)"/><path class="cls-3" d="M10.35,188.76l-.93-.19c0-.06.06-.15.11-.16a.67.67,0,0,1,.83.33Z" transform="translate(-7.32 -0.04)"/><path class="cls-3" d="M76.14,188.74a.91.91,0,0,1,.43.86h0a.92.92,0,0,1-.44-.85Z" transform="translate(-7.32 -0.04)"/><path class="cls-3" d="M74,191.33l-.43-.42,0,0,.42.43Z" transform="translate(-7.32 -0.04)"/><path class="cls-3" d="M13.79,195.61l.11-.17-.09.19Z" transform="translate(-7.32 -0.04)"/><path class="cls-2" d="M74,191.32l-.42-.43c0-1.78,1-2.24,2.55-2.13a.92.92,0,0,0,.44.85,2.79,2.79,0,0,1-.43,1.71Z" transform="translate(-7.32 -0.04)"/><path class="cls-2" d="M179.32,71.43V68.86c0-.69.08-1.34,1-1.28a1.16,1.16,0,0,1,1.13,1.3c0,1.92,0,3.85,0,5.78,0,.71-.38,1-1.07,1a.92.92,0,0,1-1-1V71.43Z" transform="translate(-7.32 -0.04)"/><path class="cls-2" d="M178.89,63.67l.43-.43,2.14.43c0,.71,0,1.42,0,2.13C179.82,66,178.81,65.5,178.89,63.67Z" transform="translate(-7.32 -0.04)"/><path class="cls-3" d="M184.89,198.63h-2.13C183.47,196.94,184.18,198.16,184.89,198.63Z" transform="translate(-7.32 -0.04)"/><path class="cls-2" d="M178.89,189.18l.43-.42h2.14a4.28,4.28,0,0,1-.43,2.56A1.84,1.84,0,0,1,178.89,189.18Z" transform="translate(-7.32 -0.04)"/><path class="cls-2" d="M25.13,19.69c.06,0,.16.08.16.1a1,1,0,0,1-.15.35c-.16.18-.23.14-.15-.09A3.84,3.84,0,0,1,25.13,19.69Z" transform="translate(-7.32 -0.04)"/><path class="cls-2" d="M21.11,13.36V5.2c1.61-.23,2.35.33,2.17,2.07a19.29,19.29,0,0,0,0,4C23.46,13,22.72,13.6,21.11,13.36Z" transform="translate(-7.32 -0.04)"/><path class="cls-2" d="M152.22,7.36c.15.14.29.28.43.43a3.71,3.71,0,0,1,0,3l-.43.43h-2.56l-.43-.42C148.7,8.36,149.42,7.53,152.22,7.36Z" transform="translate(-7.32 -0.04)"/><path class="cls-4" d="M132,134.25a.28.28,0,0,0-.32.22c-2.8,1.57-5.64,3.08-8.38,4.74a3.41,3.41,0,0,1-4,0c-3.92-2.36-7.91-4.6-11.87-6.91-.91-.53-1.69-1.13-2.11.54-.29,1.18-1.35,1.5-2.48,1.7-10.49,1.87-21,3.79-31.46,5.69l-2-.29-.47-.73a72.32,72.32,0,0,0-8.58-10.39c-3.7-4.45-7.34-9-11.13-13.34a4.07,4.07,0,0,1-.79-4.66c3.5-9.46,6.89-19,10.26-28.46a3.5,3.5,0,0,1,3-2.55c5.85-1,11.67-2.14,17.51-3.23,4.22-.71,8.46-1.38,12.67-2.18a3.38,3.38,0,0,1,3.74,1.35c1.33,1.74,2.8,3.38,4,5.25.38.6.73,1.32,1.75.6,5.43-3.85,11.56-6.51,17.11-10.16a4.51,4.51,0,0,1,5.71.1,18.9,18.9,0,0,0,3,1.53,5.1,5.1,0,0,0,2.16,1.24,29.21,29.21,0,0,0,5.22,3,11,11,0,0,0,3.06,1.76,4.85,4.85,0,0,0,1.95,1.16l2.72,1.59A8.78,8.78,0,0,0,145,83.3l.84.48,3.07,1.81a2,2,0,0,0,1.25.7A4.35,4.35,0,0,1,152,88.45L151.89,122c-.58,1.37-2.06,1.66-3,2.56-.34,0-.7,0-.82.4l-13.81,8A3.89,3.89,0,0,0,132,134.25Zm-12.88-.43c0-9,0-17.54,0-26.06a2.3,2.3,0,0,0-1.48-2.28c-5.35-3-10.66-6.16-16-9.24q-3-1.76-6.06-3.48c-.18.29-.3.4-.3.52,0,8.52,0,17,0,25.56,0,1.19.66,1.6,1.48,2.08q9.21,5.3,18.41,10.62ZM97.79,88.61a3.57,3.57,0,0,0,.57.53c7.31,4.23,14.63,8.43,21.9,12.7a2.16,2.16,0,0,0,2.53-.21q10.38-6,20.79-12c.44-.25,1.06-.37,1.25-1.08Q133.54,82,122.26,75.43a1.62,1.62,0,0,0-1.92,0c-6.76,4-13.56,7.91-20.35,11.86C99.26,87.71,98.55,88.15,97.79,88.61ZM62,86.58c-3.09,8.57-6,16.76-9,24.93a1.54,1.54,0,0,0,.31,1.74q7.8,9.27,15.56,18.57c1.28,1.56,1.89,1,2.42-.54q4-11.2,8-22.41a1.86,1.86,0,0,0-.27-2.12C73.38,100.16,67.82,93.53,62,86.58Zm85.41,6c-.76.42-1.18.65-1.6.9-6.88,4-13.74,8-20.66,11.89a2.76,2.76,0,0,0-1.58,2.88c.06,7.8,0,15.61,0,23.42v2.17l23.14-13.39a1.44,1.44,0,0,0,.67-1.45ZM65.51,83.69c.64.81,1,1.38,1.5,1.91,4.06,4.82,8.13,9.63,12.16,14.46s4.14,5,10.48,3.52c1-.23,1.25-.61,1.24-1.55,0-2.93,0-5.87,0-8.8C91,86.17,90,88,95.7,84.61c.3-.19.57-.41,1-.69-1.17-1.43-2.3-2.79-3.41-4.17a2,2,0,0,0-2.26-.7c-2.37.51-4.79,1.31-7.14,1.16-2.51-.17-4.46,1.19-6.78,1.45C73.32,82.08,69.62,82.94,65.51,83.69Zm9,51.33,26.17-4.7c.51-.09,1-.21,1.08-.83s-.52-.79-.92-1c-2.71-1.59-5.41-3.2-8.17-4.71a3.21,3.21,0,0,1-1.86-3.29c.09-2.36,0-4.72,0-7.08,0-6.11-.15-6.2-6.14-4.4A1.54,1.54,0,0,0,83.56,110C80.61,118.24,77.65,126.44,74.55,135Z" transform="translate(-7.32 -0.04)"/><path class="cls-5" d="M119.14,133.82l-4-2.28q-9.2-5.31-18.41-10.62c-.82-.48-1.49-.89-1.48-2.08.06-8.52,0-17,0-25.56,0-.12.12-.23.3-.52q3,1.72,6.06,3.48c5.33,3.08,10.64,6.19,16,9.24a2.3,2.3,0,0,1,1.48,2.28C119.11,116.28,119.14,124.8,119.14,133.82Z" transform="translate(-7.32 -0.04)"/><path class="cls-5" d="M97.79,88.61c.76-.46,1.47-.9,2.2-1.32,6.79-4,13.59-7.87,20.35-11.86a1.62,1.62,0,0,1,1.92,0Q133.53,82,144.83,88.5c-.19.71-.81.83-1.25,1.08q-10.4,6-20.79,12a2.16,2.16,0,0,1-2.53.21c-7.27-4.27-14.59-8.47-21.9-12.7A3.57,3.57,0,0,1,97.79,88.61Z" transform="translate(-7.32 -0.04)"/><path class="cls-5" d="M62,86.58c5.84,7,11.4,13.58,17,20.17a1.86,1.86,0,0,1,.27,2.12q-4,11.2-8,22.41c-.53,1.51-1.14,2.1-2.42.54q-7.74-9.31-15.56-18.57a1.54,1.54,0,0,1-.31-1.74C56,103.34,58.89,95.15,62,86.58Z" transform="translate(-7.32 -0.04)"/><path class="cls-5" d="M147.39,92.6V119a1.44,1.44,0,0,1-.67,1.45l-23.14,13.39v-2.17c0-7.81,0-15.62,0-23.42a2.76,2.76,0,0,1,1.58-2.88c6.92-3.91,13.78-7.92,20.66-11.89C146.21,93.25,146.63,93,147.39,92.6Z" transform="translate(-7.32 -0.04)"/><path class="cls-5" d="M65.51,83.69c4.11-.75,7.81-1.61,11.57-2,2.32-.26,4.27-1.62,6.78-1.45,2.35.15,4.77-.65,7.14-1.16a2,2,0,0,1,2.26.7c1.11,1.38,2.24,2.74,3.41,4.17-.4.28-.67.5-1,.69C90,88,91,86.17,90.88,93.23c0,2.93,0,5.87,0,8.8,0,.94-.24,1.32-1.24,1.55-6.34,1.43-6.32,1.45-10.48-3.52S71.07,90.42,67,85.6C66.56,85.07,66.15,84.5,65.51,83.69Z" transform="translate(-7.32 -0.04)"/><path class="cls-5" d="M74.55,135c3.1-8.58,6.06-16.78,9-25A1.54,1.54,0,0,1,84.73,109c6-1.8,6.14-1.71,6.14,4.4,0,2.36.07,4.72,0,7.08a3.21,3.21,0,0,0,1.86,3.29c2.76,1.51,5.46,3.12,8.17,4.71.4.24,1,.36.92,1s-.57.74-1.08.83Z" transform="translate(-7.32 -0.04)"/></svg>