<?xml version="1.0" encoding="utf-8"?>
<!-- Generator: Adobe Illustrator 24.1.1, SVG Export Plug-In . SVG Version: 6.00 Build 0)  -->
<svg version="1.1"
	 id="Capa_1" xmlns:cc="http://creativecommons.org/ns#" xmlns:dc="http://purl.org/dc/elements/1.1/" xmlns:rdf="http://www.w3.org/1999/02/22-rdf-syntax-ns#"
	 xmlns="http://www.w3.org/2000/svg" xmlns:xlink="http://www.w3.org/1999/xlink" x="0px" y="0px" viewBox="0 0 714 361"
	 style="enable-background:new 0 0 714 361;" xml:space="preserve">
<style type="text/css">
	.st0{fill:#32B8C6;}
	.st1{clip-path:url(#SVGID_2_);}
</style>
<path class="st0" d="M568.3,255.8H144.6v10.3h423.7V255.8z"/>
<g transform="translate(177.46 213.01)">
	<path class="st0" d="M-127.4,105.4l25.7,35.5h-13.1l-20.5-28.3l-15,13.7v14.7h-10.6V81.6h10.6v30.4l8.7-8l7.9-7.2l16.5-15.2h15.7
		L-127.4,105.4z"/>
</g>
<g transform="translate(-11.343 12.603)">
	<g>
		<defs>
			<rect id="SVGID_1_" x="-190.3" y="-220.7" width="1122.5" height="793.7"/>
		</defs>
		<clipPath id="SVGID_2_">
			<use xlink:href="#SVGID_1_"  style="overflow:visible;"/>
		</clipPath>
		<g class="st1">
			<g transform="translate(241.29 196.02)">
				<path class="st0" d="M-109.9,115.6c0-10.5-8.6-19.1-19.1-19.1c-10.5,0-19.1,8.6-19.1,19.1c0,10.5,8.6,19.1,19.1,19.1
					C-118.5,134.7-109.9,126.1-109.9,115.6 M-99.3,115.6c0,16.4-13.3,29.7-29.7,29.7s-29.7-13.3-29.7-29.7
					c0-16.4,13.3-29.7,29.7-29.7S-99.3,99.3-99.3,115.6"/>
			</g>
			<g transform="translate(282.12 202.06)">
				<path class="st0" d="M-96.3,101.5c0.8,0,1.5-0.2,2.2-0.5c1.9-0.8,3.2-2.8,3.2-4.9c0-2-1-3.3-1.6-3.9c-0.7-0.7-2-1.5-3.8-1.5
					h-26.9v10.9L-96.3,101.5z M-85.8,128.8l5.4,10.6h-11.9l-5.4-10.6l-5.7-11.1l-0.3-0.5c-1.9-3.1-5.2-5.1-9-5.1h-10.6v27.3h-10.6
					V80.1h37.5c4.4,0,8.4,1.8,11.3,4.7c2.9,2.9,4.7,6.9,4.7,11.3c0,6.4-3.8,12-9.3,14.6c-1.4,0.7-3,1.1-4.6,1.3L-85.8,128.8z"/>
			</g>
			<g transform="translate(345.03 218.22)">
				<path class="st0" d="M-75.3,63.8v59.4l-10.6-8.1l-38.2-29.4v37.6h-10.6V64l10.6,8.1l38.2,29.4V63.7L-75.3,63.8z"/>
			</g>
			<g transform="translate(395.79 173.75)">
				<path class="st0" d="M-58.4,167.6L-58.4,167.6l0.1,0.2L-58.4,167.6z M-58.3,108.1l-23,29.8l-1.3,1.6v28h-10.6v-27.8l-1.4-1.8
					l-23-29.8h13.4l16.3,21.1l16.3-21.1H-58.3z M-117.7,167.6h0.2l-0.2,0.2V167.6z"/>
			</g>
			<g transform="translate(469.77 195.95)">
				<path class="st0" d="M-33.8,115.8c0-10.5-8.6-19.1-19.1-19.1h-19.1v38.2h19.1C-42.3,134.9-33.8,126.3-33.8,115.8 M-52.8,86.1
					c16.4,0,29.7,13.2,29.7,29.6c0,7.3-2.6,14-7,19.2c-0.5,0.6-1.1,1.2-1.7,1.8c-5.3,5.4-12.7,8.7-20.9,8.7h-29.7V86L-52.8,86.1
					L-52.8,86.1z"/>
			</g>
			<g transform="translate(519.19 196.02)">
				<path class="st0" d="M-17.3,115.6c0-10.5-8.6-19.1-19.1-19.1s-19.1,8.6-19.1,19.1c0,10.5,8.6,19.1,19.1,19.1
					S-17.3,126.1-17.3,115.6 M-6.7,115.6c0,16.4-13.3,29.7-29.7,29.7c-16.4,0-29.7-13.3-29.7-29.7c0-16.4,13.3-29.7,29.7-29.7
					C-20,85.9-6.7,99.3-6.7,115.6"/>
			</g>
			<g transform="translate(576.5 218.22)">
				<path class="st0" d="M1.8,63.8v59.4l-10.6-8.1L-47,85.6v37.6h-10.6V64l10.6,8.1l38.2,29.4V63.7L1.8,63.8z"/>
			</g>
			<g transform="translate(627.39 218.28)">
				<path class="st0" d="M18.8,63.7v29.7c0,16.4-13.3,29.7-29.7,29.7c-16.4,0-29.7-13.3-29.7-29.7V63.7H-30v29.7
					c0,10.5,8.6,19.1,19.1,19.1c10.5,0,19.1-8.6,19.1-19.1V63.7L18.8,63.7z"/>
			</g>
			<g transform="translate(678.21 218.22)">
				<path class="st0" d="M35.7,63.8v10.6H11.4v48.8H0.8V74.4h-24.3V63.8H35.7z"/>
			</g>
			<g transform="translate(345.44 360.58)">
				<path class="st0" d="M-75.2-268.3l87.8,121.4H-32l-70.1-96.8l-51.3,46.7v50.1h-36.2v-202.8h36.2V-246l29.8-27.2l26.9-24.6
					l56.5-51.9h53.6L-75.2-268.3z"/>
			</g>
			<g transform="translate(460.6 296.47)">
				<path class="st0" d="M-36.8-118.7h65.2c35.9,0,65.2-29.3,65.2-65.2c0-35.9-29.3-65.2-65.2-65.2h-65.2L-36.8-118.7z M28.4-285.4
					c55.9,0,101.4,45.2,101.4,101.1c0,24.9-9,47.8-24,65.5c-1.7,2-3.8,4.1-5.8,6.1C81.7-94.1,56.5-82.8,28.7-82.8H-72.8v-202.8
					L28.4-285.4z"/>
			</g>
		</g>
	</g>
</g>
</svg>
